<svg width=" " height=" " viewBox="0 0 24 24" fill="none" xmlns="http://www.w3.org/2000/svg">
    <path d="M5 11H11M5 7H13M5 15H11M14.1716 13.1716L19.10284 17.8284M14.1716 17.8284L19.10284 13.1716" stroke="#000000"
          stroke-width="2" stroke-linecap="round" stroke-linejoin="round"/>
    <path d="M2 12C2 7.28595 2 4.92893 3.46447 3.46447C4.92893 2 7.28595 2 12 2C16.714 2 19.0711 2 20.5355 3.46447C22 4.92893 22 7.28595 22 12C22 16.714 22 19.0711 20.5355 20.5355C19.0711 22 16.714 22 12 22C7.28595 22 4.92893 22 3.46447 20.5355C2 19.0711 2 16.714 2 12Z"
          stroke="#000" stroke-width="1.5"/>
</svg>